<svg width="105" height="105" viewBox="0 0 105 105" fill="#313136" xmlns="http://www.w3.org/2000/svg">
  <g id="github" clip-path="url(#clip0_1_7)">
    <rect id="Background" y="-1" width="105" height="106" />
    <path id="Vector"
      d="M52 0C22.7308 0 -1 23.6476 -1 52.8142C-1 77.5621 16.1013 98.2697 39.1563 104C38.909 103.287 38.75 102.46 38.75 101.434V92.4073C36.5991 92.4073 32.9951 92.4073 32.0897 92.4073C28.4636 92.4073 25.2394 90.8537 23.6759 87.9665C21.9402 84.758 21.6398 79.8507 17.338 76.8491C16.0616 75.85 17.0332 74.7101 18.504 74.8642C21.2202 75.63 23.4727 77.4873 25.5927 80.2424C27.7039 83.002 28.6977 83.6269 32.6417 83.6269C34.5542 83.6269 37.4162 83.5169 40.1103 83.0944C41.559 79.4282 44.0632 76.0525 47.124 74.4592C29.475 72.6504 21.0524 63.9008 21.0524 52.022C21.0524 46.9078 23.2387 41.9609 26.9531 37.793C25.7341 33.6559 24.2015 25.2188 27.4213 22.0059C35.3624 22.0059 40.1633 27.1377 41.3161 28.5241C45.2734 27.1729 49.6194 26.4071 54.1862 26.4071C58.7619 26.4071 63.1256 27.1729 67.0917 28.5329C68.2312 27.1553 73.0366 22.0059 80.9954 22.0059C84.2284 25.2232 82.6782 33.6955 81.4459 37.8238C85.1382 41.9829 87.3112 46.9166 87.3112 52.022C87.3112 63.892 78.9019 72.6372 61.2794 74.4548C66.1289 76.9767 69.6667 84.0626 69.6667 89.4013V101.434C69.6667 101.892 69.5651 102.222 69.5121 102.614C90.1644 95.4001 105 75.8588 105 52.8142C105 23.6476 81.2692 0 52 0Z"
      fill="white" />
  </g>
  <defs>
    <clipPath id="clip0_1_7">
      <rect width="105" height="105" fill="white" />
    </clipPath>
  </defs>
</svg>