<svg class="github" width="50" height="50" viewBox="0 0 200 200" fill="white" xmlns="http://www.w3.org/2000/svg">
  <g id="GitHub">
    <path id="logo"
      d="M100.511 6.00001C47.7408 5.97809 5 49.8594 5 104.021C5 146.85 31.737 183.257 68.9725 196.627C73.987 197.921 73.2189 194.26 73.2189 191.761V174.774C44.2627 178.259 43.089 158.576 41.1472 155.289C37.221 148.406 27.9388 146.653 30.7128 143.365C37.3063 139.88 44.0279 144.242 51.8164 156.056C57.4498 164.626 68.4391 163.179 74.0084 161.755C75.2247 156.604 77.828 152.001 81.4128 148.428C51.411 142.905 38.9067 124.098 38.9067 101.741C38.9067 90.8913 42.3849 80.9183 49.2132 72.8741C44.8601 59.6133 49.6186 48.2594 50.2587 46.5716C62.6564 45.4318 75.5447 55.6898 76.5476 56.5008C83.5893 54.55 91.6339 53.5199 100.639 53.5199C109.686 53.5199 117.752 54.5939 124.858 56.5666C127.269 54.6816 139.219 45.8702 150.741 46.9442C151.36 48.632 156.012 59.7229 151.915 72.8084C158.829 80.8745 162.349 90.9352 162.349 101.807C162.349 124.208 149.76 143.036 119.673 148.472C122.25 151.075 124.296 154.18 125.692 157.604C127.088 161.029 127.805 164.705 127.802 168.418V193.077C127.973 195.049 127.802 197 131.003 197C168.794 183.915 196 147.244 196 104.043C196 49.8594 153.238 6.00001 100.511 6.00001Z" />
  </g>
</svg>