<svg width="105" height="105" viewBox="0 0 105 105" fill="#313136" xmlns="http://www.w3.org/2000/svg">
  <g clip-path="url(#clip0_1_2)">
    <rect y="-1" width="105" height="106" />
    <path
      d="M52.5 0C38.5761 0 25.2226 5.53123 15.3769 15.3769C5.53123 25.2226 0 38.5761 0 52.5C0 66.4239 5.53123 79.7774 15.3769 89.6231C25.2226 99.4688 38.5761 105 52.5 105C66.4239 105 79.7774 99.4688 89.6231 89.6231C99.4688 79.7774 105 66.4239 105 52.5C105 38.5761 99.4688 25.2226 89.6231 15.3769C79.7774 5.53123 66.4239 0 52.5 0V0Z"
      fill="#0288D1" />
    <path
      d="M26.25 39.375H36.75V78.75H26.25V39.375ZM31.4685 34.125H31.4107C28.2765 34.125 26.25 31.7887 26.25 28.8724C26.25 25.893 28.3395 23.625 31.5289 23.625C34.7235 23.625 36.6896 25.893 36.75 28.8724C36.75 31.7887 34.7235 34.125 31.4685 34.125ZM81.375 53.8125C81.375 45.8377 74.9123 39.375 66.9375 39.375C62.0498 39.375 57.7369 41.811 55.125 45.528V39.375H44.625V78.75H55.125V57.75C55.125 53.4004 58.6504 49.875 63 49.875C67.3496 49.875 70.875 53.4004 70.875 57.75V78.75H81.375C81.375 78.75 81.375 54.9176 81.375 53.8125Z"
      fill="white" />
  </g>
  <defs>
    <clipPath id="clip0_1_2">
      <rect width="105" height="105" fill="white" />
    </clipPath>
  </defs>
</svg>