<svg class="linkedin" width="50" height="49" viewBox="0 0 200 196" fill="white" xmlns="http://www.w3.org/2000/svg">
  <g id="LinkedIn" clip-path="url(#clip0_1_10)">
    <path id="logo" fill-rule="evenodd" clip-rule="evenodd"
      d="M0 0V198H200V0H0ZM62.2075 164.493H32.5345V76.1129H62.2075V164.493ZM47.371 64.0502H47.1749C37.2211 64.0502 30.7692 57.2612 30.7692 48.7755C30.7692 40.1035 37.4097 33.5068 47.5653 33.5068C57.7231 33.5068 63.9653 40.1035 64.1596 48.7755C64.1596 57.2612 57.7231 64.0502 47.371 64.0502ZM169.231 164.493H139.55V117.209C139.55 105.333 135.262 97.2267 124.519 97.2267C116.315 97.2267 111.44 102.685 109.292 107.972C108.512 109.861 108.308 112.486 108.308 115.135V164.494H78.6211C78.6211 164.494 79.0189 84.4046 78.6211 76.1134H108.308V88.637C112.252 82.6287 119.291 74.0385 135.058 74.0385C154.59 74.0385 169.231 86.667 169.231 113.812V164.493Z" />
  </g>
  <defs>
  </defs>
</svg>